<svg width="152" height="46" viewBox="0 0 152 46" fill="none" xmlns="http://www.w3.org/2000/svg">
<g clip-path="url(#clip0_423_6112)">
<path d="M25.8864 -0.349121L14.6242 18.8923L3.21275 -0.349121H0V27.0298H3.75699V7.19998L13.6498 23.7027H15.4493L25.3509 7.07708V27.0298H29.1079V-0.349121H25.8864ZM36.5516 -0.349121V27.0298H40.4315V3.04798H50.8773V-0.349121H36.5516ZM77.3694 -0.349121L61.1739 20.7708V-0.349121H57.3028V27.0298H60.9018L77.1324 5.96228V27.0298H80.9683V-0.349121H77.3694Z" fill="#22244F"/>
<path d="M117.295 27.0298L117.251 -0.35791H114.047L102.777 18.8923L91.3563 -0.35791H88.1523V27.0298H91.9093V7.19118L101.802 23.7027H103.602L113.494 7.07709L113.538 27.0298H117.295Z" fill="#22244F"/>
<path d="M152 36.6419H144.714V37.4669H147.892V45.6649H148.831V37.4669H152V36.6419ZM133.373 44.8399V41.4869H138.043V40.6799H133.373V37.4669H138.64V36.6419H132.495V45.6649H138.877V44.8399H133.373ZM125.561 36.6419H118.284V37.4669H121.453V45.6649H122.392V37.4669H125.561V36.6419ZM103.861 45.6649H104.739L110.515 38.2039V45.6649H111.454V36.6419H110.577L104.801 44.1209V36.6419H103.861V45.6649ZM93.3893 45.7439C94.0258 45.7509 94.6577 45.6349 95.2502 45.4019C95.8052 45.1909 96.3038 44.8549 96.7073 44.4189L96.1016 43.8129C95.7604 44.1649 95.3505 44.4419 94.8974 44.6269C94.4443 44.8129 93.9578 44.9039 93.4682 44.8929C92.787 44.9019 92.1153 44.7319 91.5195 44.4009C90.9479 44.0899 90.4716 43.6279 90.1414 43.0669C89.8121 42.4839 89.6425 41.8239 89.6498 41.1539C89.6416 40.4859 89.8112 39.8289 90.1414 39.2489C90.4686 38.6829 90.9454 38.2179 91.5195 37.9059C92.1153 37.5749 92.787 37.4059 93.4682 37.4139C93.9568 37.4059 94.442 37.4959 94.8946 37.6799C95.3472 37.8639 95.7578 38.1379 96.1016 38.4849L96.7073 37.8789C96.3053 37.4459 95.81 37.1099 95.2589 36.8959C94.6678 36.6709 94.0396 36.5569 93.4068 36.5629C92.5615 36.5519 91.7274 36.7569 90.9841 37.1599C90.2754 37.5349 89.688 38.1049 89.2899 38.8009C88.887 39.5199 88.6754 40.3299 88.6754 41.1539C88.6754 41.9769 88.887 42.7869 89.2899 43.5059C89.6867 44.1999 90.2708 44.7689 90.9753 45.1479C91.7156 45.5499 92.5468 45.7549 93.3893 45.7439ZM78.4666 41.9789H76.0702V37.4669H78.4666C79.1964 37.4159 79.9206 37.6239 80.5119 38.0549C80.752 38.2619 80.9411 38.5219 81.0644 38.8149C81.1878 39.1069 81.242 39.4239 81.2229 39.7399C81.2405 40.0519 81.1855 40.3629 81.0621 40.6489C80.9387 40.9359 80.7503 41.1899 80.5119 41.3909C79.9206 41.8209 79.1964 42.0299 78.4666 41.9789ZM78.4666 36.6419H75.0871V45.6649H76.0439V42.7859H78.4666C79.4373 42.8409 80.3957 42.5489 81.1702 41.9609C81.4972 41.6869 81.7561 41.3399 81.9266 40.9489C82.0972 40.5569 82.1748 40.1319 82.1534 39.7049C82.1749 39.2759 82.0973 38.8479 81.9269 38.4539C81.7564 38.0599 81.4975 37.7099 81.1702 37.4319C80.3975 36.8409 79.4377 36.5479 78.4666 36.6069V36.6419ZM62.3678 44.8049V41.4519H67.0289V40.6439H62.3678V37.4319H67.6346V36.6419H61.49V45.6649H67.8716V44.8399L62.3678 44.8049ZM50.5701 44.8669H47.5417V41.4259H50.5965C52.1502 41.4259 52.9314 41.9959 52.9314 43.1289C52.9314 44.2609 52.1502 44.8839 50.5965 44.8839L50.5701 44.8669ZM47.5417 37.3609H50.298C50.8649 37.3249 51.4284 37.4729 51.9044 37.7829C52.0812 37.9369 52.223 38.1269 52.3202 38.3409C52.4173 38.5539 52.4676 38.7859 52.4676 39.0209C52.4676 39.2549 52.4173 39.4869 52.3202 39.6999C52.223 39.9139 52.0812 40.1039 51.9044 40.2579C51.4294 40.5709 50.8659 40.7219 50.298 40.6879H47.5417V37.3609ZM51.9307 40.9689C52.3618 40.8199 52.7401 40.5489 53.0192 40.1879C53.2832 39.8139 53.4188 39.3639 53.4054 38.9059C53.4231 38.5759 53.3576 38.2459 53.215 37.9469C53.0724 37.6479 52.8572 37.3889 52.5891 37.1949C51.9192 36.7619 51.1293 36.5529 50.3331 36.5979H46.5849V45.6219H50.5789C51.4393 45.6809 52.2956 45.4589 53.0192 44.9899C53.483 44.5919 53.777 44.0319 53.8407 43.4249C53.9044 42.8179 53.7329 42.2089 53.3615 41.7239C52.9826 41.3189 52.4787 41.0539 51.9307 40.9689ZM30.7757 45.6219H31.6535L37.4294 38.1599V45.6219H38.3687V36.6419H37.4909L31.7413 44.0769V36.6419H30.7933L30.7757 45.6219ZM21.5939 36.6419V40.6619H15.9409V36.6419H14.9928V45.6649H15.9409V41.5049H21.5851V45.6649H22.5331V36.6419H21.5939ZM7.38231 36.6419L4.16078 42.7859L1.01825 36.6419H0L3.66043 43.5939L3.40587 44.0329C3.2761 44.3129 3.07119 44.5509 2.81393 44.7219C2.55667 44.8919 2.25716 44.9879 1.94872 44.9979C1.64696 44.9939 1.34886 44.9319 1.07092 44.8139L0.798802 45.5859C1.15005 45.7429 1.52925 45.8259 1.91361 45.8319C2.37081 45.8319 2.81743 45.6949 3.19519 45.4369C3.62943 45.1269 3.97944 44.7139 4.21345 44.2349L8.31278 36.6419H7.38231Z" fill="#22244F"/>
<path d="M137.479 23.8344C136.075 23.8864 134.676 23.6504 133.367 23.1412C132.059 22.6319 130.868 21.8601 129.869 20.8733C128.87 19.8864 128.083 18.7055 127.558 17.4031C127.032 16.1008 126.779 14.7047 126.813 13.3008C126.813 7.24399 131.343 2.76719 137.479 2.76719C140.272 2.76719 142.952 3.87699 144.927 5.85239C146.903 7.82779 148.012 10.5071 148.012 13.3008C148.012 16.0945 146.903 18.7738 144.927 20.7492C142.952 22.7246 140.272 23.8344 137.479 23.8344ZM151.971 13.3008C151.971 5.26009 145.827 -0.682617 137.479 -0.682617C129.131 -0.682617 122.898 5.29529 122.898 13.3008C122.898 21.3063 129.043 27.2928 137.479 27.2928C145.914 27.2928 151.998 21.3678 151.998 13.3183" fill="#22244F"/>
</g>
<defs>
<clipPath id="clip0_423_6112">
<rect width="152" height="46" fill="white"/>
</clipPath>
</defs>
</svg>
