<svg id="angle" viewBox="0 0 7 11" fill="none" xmlns="http://www.w3.org/2000/svg">
<path d="M1.80684 0.479618C1.70865 0.381432 1.59209 0.303547 1.4638 0.25041C1.33552 0.197272 1.19802 0.169922 1.05916 0.169922C0.920309 0.169922 0.782814 0.197272 0.654528 0.25041C0.526242 0.303547 0.409679 0.381432 0.311493 0.479618C0.213307 0.577803 0.135422 0.694367 0.0822848 0.822652C0.0291471 0.950938 0.00179715 1.08843 0.00179715 1.22729C0.00179715 1.36614 0.0291471 1.50364 0.0822848 1.63193C0.135422 1.76021 0.213307 1.87678 0.311493 1.97496L3.78659 5.43952L0.311493 8.90409C0.212791 9.00198 0.13445 9.11845 0.0809878 9.24678C0.0275254 9.3751 0 9.51274 0 9.65176C0 9.79078 0.0275254 9.92842 0.0809878 10.0567C0.13445 10.1851 0.212791 10.3015 0.311493 10.3994C0.409389 10.4981 0.525858 10.5765 0.654183 10.6299C0.782508 10.6834 0.920149 10.7109 1.05916 10.7109C1.19818 10.7109 1.33582 10.6834 1.46415 10.6299C1.59247 10.5765 1.70894 10.4981 1.80684 10.3994L6.01907 6.1872C6.11777 6.0893 6.19611 5.97283 6.24958 5.84451C6.30304 5.71618 6.33057 5.57854 6.33057 5.43952C6.33057 5.30051 6.30304 5.16287 6.24958 5.03454C6.19611 4.90622 6.11777 4.78975 6.01907 4.69185L1.80684 0.479618Z" fill="var(--icon-color, #8BC8E3)"/>
</svg>
