<svg width="50" height="50" viewBox="0 0 50 50" fill="none" xmlns="http://www.w3.org/2000/svg">
<path d="M36.4701 43.756C32.443 43.756 29.1784 40.4915 29.1784 36.4644C29.1784 32.4373 32.443 29.1727 36.4701 29.1727C40.4972 29.1727 43.7618 32.4373 43.7618 36.4644C43.7618 40.4915 40.4972 43.756 36.4701 43.756ZM13.5534 20.8394C9.52632 20.8394 6.26172 17.5749 6.26172 13.5478C6.26172 9.52069 9.52632 6.2561 13.5534 6.2561C17.5805 6.2561 20.8451 9.52069 20.8451 13.5478C20.8451 17.5749 17.5805 20.8394 13.5534 20.8394ZM39.7432 7.32844L42.6895 10.2747L10.2803 42.6837L7.33405 39.7375L39.7432 7.32844Z" fill="#5486E5"/>
</svg>
