<svg id="ok" viewBox="0 0 24 24" fill="none" xmlns="http://www.w3.org/2000/svg">
<g clip-path="url(#clip0_6_2)">
<path d="M-3 11.4C-3 4.61 -3 1.22 -0.9 -0.9C1.23 -3 4.62 -3 11.4 -3H12.6C19.39 -3 22.78 -3 24.9 -0.9C27 1.23 27 4.62 27 11.4V12.6C27 19.39 27 22.78 24.9 24.9C22.77 27 19.38 27 12.6 27H11.4C4.61 27 1.22 27 -0.9 24.9C-3 22.77 -3 19.38 -3 12.6V11.4Z" fill="#FF7700"/>
<path d="M11.1695 15.1936C9.94641 15.0658 8.84311 14.7622 7.89879 14.0184C7.78135 13.9257 7.65992 13.8362 7.55366 13.7332C7.13983 13.3337 7.09828 12.8751 7.42584 12.4038C7.70546 11.9995 8.17522 11.8917 8.66335 12.1242C8.75763 12.1681 8.8471 12.2248 8.93419 12.2848C10.6942 13.5023 13.1125 13.5359 14.8789 12.3399C15.0547 12.2041 15.2416 12.0938 15.4581 12.0379C15.8799 11.9292 16.273 12.085 16.4991 12.4565C16.758 12.8799 16.7548 13.2954 16.436 13.6237C15.9479 14.1294 15.3599 14.4945 14.7071 14.7494C14.0896 14.9907 13.4129 15.1121 12.7442 15.192C12.8449 15.303 12.8928 15.3574 12.9559 15.4213C13.8643 16.34 14.7774 17.2564 15.6834 18.1783C15.9918 18.4931 16.0565 18.8822 15.8863 19.2481C15.7002 19.6475 15.2848 19.9104 14.8765 19.8824C14.6185 19.864 14.4171 19.7346 14.2374 19.5533C13.5519 18.8582 12.8537 18.1759 12.1818 17.4681C11.986 17.262 11.8918 17.3011 11.7192 17.4801C11.0297 18.1951 10.3291 18.899 9.62285 19.5996C9.30648 19.9136 8.92939 19.9703 8.56189 19.7913C8.17202 19.5996 7.92276 19.1994 7.94273 18.7959C7.95552 18.5227 8.08893 18.315 8.27508 18.128C9.17466 17.2236 10.071 16.3169 10.9682 15.4117C11.0273 15.351 11.0833 15.2871 11.1695 15.1936Z" fill="white"/>
<path d="M11.9149 12.0443C9.73231 12.0363 7.94274 10.2148 7.95473 8.01296C7.96751 5.78718 9.75867 3.99442 11.9629 4.00001C14.1711 4.00561 15.9439 5.82553 15.9335 8.07447C15.9215 10.2715 14.1199 12.0515 11.9149 12.0443ZM13.8986 8.01775C13.9001 7.76047 13.8507 7.50543 13.7533 7.26729C13.6559 7.02916 13.5124 6.81263 13.331 6.63014C13.1496 6.44765 12.934 6.30281 12.6965 6.20394C12.4589 6.10507 12.2042 6.05412 11.9469 6.05402C11.6872 6.05377 11.43 6.10527 11.1905 6.20551C10.9509 6.30575 10.7337 6.45273 10.5515 6.63785C10.3694 6.82298 10.2259 7.04254 10.1296 7.28371C10.0332 7.52489 9.9859 7.78285 9.99036 8.04252C9.99067 8.29991 10.0419 8.55469 10.1411 8.7922C10.2402 9.02972 10.3854 9.24527 10.5682 9.42645C10.751 9.60764 10.9679 9.75087 11.2063 9.84791C11.4447 9.94494 11.6999 9.99387 11.9573 9.99187C12.2147 9.99094 12.4693 9.93903 12.7065 9.83914C12.9437 9.73924 13.1588 9.59335 13.3393 9.40987C13.5198 9.2264 13.6622 9.00898 13.7582 8.77017C13.8542 8.53137 13.9019 8.27591 13.8986 8.01855V8.01775Z" fill="white"/>
</g>
<defs>
<clipPath id="clip0_6_2">
<rect width="24" height="24" rx="12" fill="white"/>
</clipPath>
</defs>
</svg>
