<svg id="vk" viewBox="0 0 31 31" fill="none" xmlns="http://www.w3.org/2000/svg">
<g clip-path="url(#clip0_3_78)">
<path d="M0.5 14.4672C0.5 7.67724 0.5 4.28724 2.6 2.16724C4.73 0.0672417 8.12 0.0672417 14.9 0.0672417H16.1C22.89 0.0672417 26.28 0.0672417 28.4 2.16724C30.5 4.29724 30.5 7.68724 30.5 14.4672V15.6672C30.5 22.4572 30.5 25.8472 28.4 27.9672C26.27 30.0672 22.88 30.0672 16.1 30.0672H14.9C8.11 30.0672 4.72 30.0672 2.6 27.9672C0.5 25.8372 0.5 22.4472 0.5 15.6672V14.4672Z" fill="#0077FF"/>
<path d="M16.46 21.6772C9.62 21.6772 5.72 16.9972 5.56 9.19724H9C9.11 14.9172 11.63 17.3372 13.63 17.8372V9.19724H16.86V14.1272C18.83 13.9172 20.91 11.6672 21.61 9.18724H24.83C24.5674 10.471 24.043 11.6868 23.2894 12.7588C22.5357 13.8307 21.5692 14.7357 20.45 15.4172C21.6989 16.0389 22.8019 16.9182 23.6862 17.9972C24.5704 19.0763 25.2159 20.3305 25.58 21.6772H22.03C21.27 19.3072 19.37 17.4672 16.86 17.2172V21.6772H16.47H16.46Z" fill="white"/>
</g>
<defs>
<clipPath id="clip0_3_78">
<rect x="0.5" y="0.0672417" width="30" height="30" rx="15" fill="white"/>
</clipPath>
</defs>
</svg>
