<svg width="146" height="146" viewBox="0 0 146 146" fill="none" xmlns="http://www.w3.org/2000/svg">
<circle cx="73" cy="73" r="73" fill="#202A34"/>
<path d="M43.2791 58.62C45.0924 58.62 46.7324 59.06 48.1991 59.94C49.6791 60.8066 50.8524 61.9933 51.7191 63.5C52.5857 64.9933 53.0191 66.6733 53.0191 68.54V78.54C53.0191 80.46 52.5857 82.18 51.7191 83.7C50.8524 85.22 49.6657 86.42 48.1591 87.3C46.6657 88.1666 44.9657 88.6 43.0591 88.6C41.4191 88.6 39.8991 88.24 38.4991 87.52C37.1124 86.7866 35.9657 85.78 35.0591 84.5L37.2991 82.64C37.9124 83.5866 38.7257 84.3466 39.7391 84.92C40.7657 85.4933 41.8724 85.78 43.0591 85.78C44.4191 85.78 45.6191 85.46 46.6591 84.82C47.7124 84.1666 48.5391 83.3133 49.1391 82.26C49.7524 81.1933 50.0591 80.04 50.0591 78.8V72.52L50.7791 73.36C49.9524 74.68 48.8524 75.7466 47.4791 76.56C46.1191 77.3733 44.6257 77.78 42.9991 77.78C41.2257 77.78 39.6191 77.3533 38.1791 76.5C36.7524 75.6466 35.6191 74.5 34.7791 73.06C33.9524 71.62 33.5391 70.0133 33.5391 68.24C33.5391 66.4666 33.9791 64.8533 34.8591 63.4C35.7391 61.9333 36.9191 60.7733 38.3991 59.92C39.8791 59.0533 41.5057 58.62 43.2791 58.62ZM43.2791 61.46C42.0257 61.46 40.8857 61.7666 39.8591 62.38C38.8324 62.98 38.0124 63.7933 37.3991 64.82C36.7991 65.8466 36.4991 66.9866 36.4991 68.24C36.4991 69.4933 36.7991 70.6333 37.3991 71.66C37.9991 72.6866 38.8124 73.5066 39.8391 74.12C40.8657 74.72 42.0057 75.02 43.2591 75.02C44.5124 75.02 45.6524 74.72 46.6791 74.12C47.7191 73.5066 48.5391 72.6866 49.1391 71.66C49.7524 70.6333 50.0591 69.4933 50.0591 68.24C50.0591 67 49.7524 65.8666 49.1391 64.84C48.5391 63.8133 47.7257 62.9933 46.6991 62.38C45.6724 61.7666 44.5324 61.46 43.2791 61.46Z" fill="white"/>
<path d="M67.1037 88.6C65.6104 88.6 64.2304 88.2933 62.9637 87.68C61.6971 87.0666 60.6171 86.22 59.7238 85.14C58.8304 84.06 58.1904 82.82 57.8037 81.42L60.6237 80.66C60.8771 81.7 61.3371 82.6 62.0037 83.36C62.6704 84.1066 63.4504 84.6866 64.3438 85.1C65.2504 85.5133 66.1971 85.72 67.1838 85.72C68.4638 85.72 69.6104 85.4133 70.6237 84.8C71.6504 84.1733 72.4638 83.3466 73.0638 82.32C73.6638 81.2933 73.9637 80.1666 73.9637 78.94C73.9637 77.6733 73.6504 76.5333 73.0238 75.52C72.3971 74.4933 71.5704 73.68 70.5438 73.08C69.5171 72.48 68.3971 72.18 67.1838 72.18C65.8238 72.18 64.6504 72.48 63.6637 73.08C62.6771 73.6666 61.8904 74.4066 61.3037 75.3L58.6237 74.18L59.5037 59.2H74.8838V62.02H60.8037L62.2638 60.64L61.4837 73.42L60.7438 72.44C61.5704 71.4933 62.5704 70.7533 63.7437 70.22C64.9171 69.6866 66.1504 69.42 67.4437 69.42C69.2171 69.42 70.8171 69.8466 72.2438 70.7C73.6704 71.54 74.8037 72.68 75.6437 74.12C76.4837 75.56 76.9038 77.1666 76.9038 78.94C76.9038 80.7 76.4571 82.3133 75.5638 83.78C74.6704 85.2333 73.4837 86.4 72.0037 87.28C70.5237 88.16 68.8904 88.6 67.1037 88.6Z" fill="white"/>
<path d="M84.4897 88L82.4897 86L109.35 59.2L111.35 61.18L84.4897 88ZM105.35 88.6C104.03 88.6 102.823 88.28 101.73 87.64C100.65 86.9866 99.783 86.12 99.1297 85.04C98.4764 83.9466 98.1497 82.7333 98.1497 81.4C98.1497 80.0933 98.483 78.8933 99.1497 77.8C99.8164 76.7066 100.696 75.8333 101.79 75.18C102.883 74.5266 104.07 74.2 105.35 74.2C106.67 74.2 107.876 74.5266 108.97 75.18C110.063 75.82 110.93 76.6866 111.57 77.78C112.223 78.86 112.55 80.0666 112.55 81.4C112.55 82.7333 112.223 83.9466 111.57 85.04C110.93 86.12 110.063 86.9866 108.97 87.64C107.876 88.28 106.67 88.6 105.35 88.6ZM105.35 85.94C106.163 85.94 106.916 85.7333 107.61 85.32C108.303 84.9066 108.856 84.36 109.27 83.68C109.683 82.9866 109.89 82.2266 109.89 81.4C109.89 80.5733 109.683 79.82 109.27 79.14C108.856 78.4466 108.303 77.8933 107.61 77.48C106.916 77.0666 106.163 76.86 105.35 76.86C104.523 76.86 103.763 77.0666 103.07 77.48C102.39 77.8933 101.836 78.4466 101.41 79.14C100.996 79.82 100.79 80.5733 100.79 81.4C100.79 82.2266 100.996 82.9866 101.41 83.68C101.836 84.36 102.39 84.9066 103.07 85.32C103.763 85.7333 104.523 85.94 105.35 85.94ZM88.4897 73C87.1697 73 85.963 72.68 84.8697 72.04C83.7764 71.3866 82.903 70.52 82.2497 69.44C81.6097 68.3466 81.2897 67.1333 81.2897 65.8C81.2897 64.4933 81.623 63.2933 82.2897 62.2C82.9564 61.1066 83.8364 60.2333 84.9297 59.58C86.023 58.9266 87.2097 58.6 88.4897 58.6C89.8097 58.6 91.0097 58.9266 92.0897 59.58C93.183 60.22 94.0564 61.0866 94.7097 62.18C95.363 63.26 95.6897 64.4666 95.6897 65.8C95.6897 67.1333 95.363 68.3466 94.7097 69.44C94.0564 70.52 93.183 71.3866 92.0897 72.04C91.0097 72.68 89.8097 73 88.4897 73ZM88.4897 70.34C89.3164 70.34 90.0697 70.1333 90.7497 69.72C91.443 69.3066 91.9964 68.76 92.4097 68.08C92.823 67.3866 93.0297 66.6266 93.0297 65.8C93.0297 64.9733 92.823 64.22 92.4097 63.54C91.9964 62.8466 91.443 62.2933 90.7497 61.88C90.0697 61.4666 89.3164 61.26 88.4897 61.26C87.663 61.26 86.903 61.4666 86.2097 61.88C85.5297 62.2933 84.983 62.8466 84.5697 63.54C84.1564 64.22 83.9497 64.9733 83.9497 65.8C83.9497 66.6266 84.1564 67.3866 84.5697 68.08C84.983 68.76 85.5297 69.3066 86.2097 69.72C86.903 70.1333 87.663 70.34 88.4897 70.34Z" fill="white"/>
</svg>
