<svg width="39" height="20" viewBox="0 0 39 20" fill="none" xmlns="http://www.w3.org/2000/svg">
<g clip-path="url(#clip0_581_7044)">
<path d="M36.2403 7.36633H38.9932C38.645 4.60768 36.6881 3.15765 33.9682 3.15765C31.2154 3.15765 29.3746 4.66076 29.3746 7.24255C29.3746 10.178 31.7461 10.8322 33.0064 11.0976C34.6316 11.4335 36.2237 11.4689 36.2237 12.9543C36.2237 13.9622 35.4277 14.4574 34.3 14.4574C32.907 14.4574 31.9783 13.7147 31.7461 12.3708H29.0264C29.1922 15.2709 31.1657 16.827 34.0679 16.827C36.7544 16.827 38.96 15.5184 38.96 12.6891C38.96 9.64747 36.4227 9.09932 34.6482 8.81636C33.4376 8.62187 32.1109 8.44501 32.1109 7.08337C32.1109 6.12848 32.7909 5.54495 33.9351 5.54495C35.2619 5.54495 36.0578 6.34075 36.2403 7.36633Z" fill="#BBC8CD"/>
<path d="M27.5173 3.59976H24.9136V16.4202H27.5173V3.59976Z" fill="#BBC8CD"/>
<path d="M17.0529 11.9463H20.4526C19.9219 13.3257 18.7278 13.9799 17.3514 13.9799C14.9302 13.9799 13.8026 11.9817 13.8026 10.0012C13.8026 8.00291 14.8639 5.96935 17.3349 5.96935C18.844 5.96935 19.9716 6.71205 20.4028 8.0383L23.2055 8.03831C22.7246 5.04986 20.2702 3.33456 17.3681 3.33456C13.786 3.33456 11.0994 5.93396 11.0994 10.0366C11.0994 14.1921 14.0181 16.6501 17.3514 16.6501C20.635 16.6501 23.2055 14.369 23.2055 10.797V9.75359H17.0529V11.9463Z" fill="#BBC8CD"/>
<path d="M5.1459 3.33453C2.16083 3.33453 -0.0448183 5.33271 -0.0282273 8.6572H2.65836C2.62516 7.20717 3.48749 5.88093 5.01321 5.88093C6.33995 5.88093 7.11936 6.87121 7.11936 8.00289C7.11936 9.13464 6.33994 9.77127 4.89712 10.461C2.92365 11.3982 1.51408 11.9994 0.0712552 12.5299V16.4202H10.121V13.8031H3.22176C3.22176 13.8031 3.24473 13.7954 3.25604 13.7918C4.42952 13.4126 5.31111 13.0007 6.35654 12.5122C8.59531 11.4512 9.87226 10.1249 9.87226 7.86148C9.87227 5.08513 7.94857 3.33453 5.1459 3.33453Z" fill="#BBC8CD"/>
</g>
<defs>
<clipPath id="clip0_581_7044">
<rect width="39" height="20" fill="white"/>
</clipPath>
</defs>
</svg>
