<svg id="tg" viewBox="0 0 37 38" fill="none" xmlns="http://www.w3.org/2000/svg">
<g clip-path="url(#clip0_1_2)">
<path fill-rule="evenodd" clip-rule="evenodd" d="M18.5 37.5C28.7173 37.5 37 29.2173 37 19C37 8.78273 28.7173 0.5 18.5 0.5C8.28273 0.5 0 8.78273 0 19C0 29.2173 8.28273 37.5 18.5 37.5Z" fill="url(#paint0_linear_1_2)"/>
<path fill-rule="evenodd" clip-rule="evenodd" d="M15.5455 27.5C14.927 27.5 15.0321 27.2682 14.8188 26.6838L13 20.743L27 12.5" fill="#C8DAEA"/>
<path fill-rule="evenodd" clip-rule="evenodd" d="M15 27.5C15.4091 27.5 15.5898 27.2758 15.8182 27.0097L18 24.467L15.2785 22.5" fill="#A9C9DD"/>
<path fill-rule="evenodd" clip-rule="evenodd" d="M15.8351 22.7189L23.247 28.2684C24.0928 28.7414 24.7032 28.4965 24.9139 27.4726L27.931 13.0644C28.2398 11.8094 27.4589 11.2402 26.6497 11.6125L8.93382 18.5353C7.72454 19.0269 7.73159 19.7106 8.71339 20.0153L13.2597 21.4533L23.7849 14.7239C24.2818 14.4186 24.7378 14.5827 24.3635 14.9194" fill="url(#paint1_linear_1_2)"/>
</g>
<defs>
<linearGradient id="paint0_linear_1_2" x1="13.8768" y1="2.0429" x2="4.62685" y2="23.625" gradientUnits="userSpaceOnUse">
<stop stop-color="#37AEE2"/>
<stop offset="1" stop-color="#1E96C8"/>
</linearGradient>
<linearGradient id="paint1_linear_1_2" x1="16.5919" y1="20.0724" x2="18.6054" y2="26.4992" gradientUnits="userSpaceOnUse">
<stop stop-color="#EFF7FC"/>
<stop offset="1" stop-color="white"/>
</linearGradient>
<clipPath id="clip0_1_2">
<rect width="37" height="37" fill="white" transform="translate(0 0.5)"/>
</clipPath>
</defs>
</svg>
