<svg id="viber" viewBox="0 0 32 32" fill="none" xmlns="http://www.w3.org/2000/svg">
<g clip-path="url(#clip0_13_17)">
<rect x="-0.133614" width="32.1182" height="32.1182" rx="16.0591" fill="#7C5BED"/>
<path d="M11.965 10.202C11.7791 10.1749 11.5896 10.2124 11.428 10.308H11.414C11.039 10.528 10.701 10.805 10.413 11.131C10.173 11.408 10.043 11.688 10.009 11.958C9.989 12.118 10.003 12.28 10.05 12.433L10.068 12.443C10.338 13.236 10.69 13.999 11.12 14.717C11.6745 15.7255 12.3568 16.6582 13.15 17.492L13.174 17.526L13.212 17.554L13.235 17.581L13.263 17.605C14.0997 18.4006 15.0346 19.0862 16.045 19.645C17.2 20.274 17.901 20.571 18.322 20.695V20.701C18.445 20.739 18.557 20.756 18.67 20.756C19.0285 20.7295 19.3679 20.5838 19.634 20.342C19.959 20.054 20.234 19.715 20.448 19.338V19.331C20.649 18.951 20.581 18.593 20.291 18.35C19.7085 17.841 19.0786 17.389 18.41 17C17.962 16.757 17.507 16.904 17.323 17.15L16.93 17.646C16.728 17.892 16.362 17.858 16.362 17.858L16.352 17.864C13.621 17.167 12.892 14.402 12.892 14.402C12.892 14.402 12.858 14.026 13.111 13.834L13.603 13.438C13.839 13.246 14.003 12.792 13.75 12.344C13.3636 11.6748 12.9124 11.0451 12.403 10.464C12.2919 10.3272 12.1361 10.2341 11.963 10.201L11.965 10.202ZM16.58 9C16.4474 9 16.3202 9.05268 16.2264 9.14645C16.1327 9.24021 16.08 9.36739 16.08 9.5C16.08 9.63261 16.1327 9.75979 16.2264 9.85355C16.3202 9.94732 16.4474 10 16.58 10C17.844 10 18.894 10.413 19.725 11.205C20.152 11.638 20.485 12.151 20.703 12.713C20.922 13.276 21.022 13.877 20.996 14.479C20.9904 14.6116 21.0378 14.741 21.1276 14.8387C21.2174 14.9364 21.3424 14.9944 21.475 15C21.6076 15.0056 21.737 14.9582 21.8347 14.8684C21.9324 14.7786 21.9904 14.6536 21.996 14.521C22.027 13.7805 21.9041 13.0416 21.635 12.351C21.3647 11.6571 20.9549 11.0261 20.431 10.497L20.421 10.487C19.39 9.502 18.086 9 16.58 9Z" fill="white"/>
<path d="M16.545 10.644C16.4124 10.644 16.2852 10.6967 16.1914 10.7905C16.0977 10.8842 16.045 11.0114 16.045 11.144C16.045 11.2766 16.0977 11.4038 16.1914 11.4976C16.2852 11.5913 16.4124 11.644 16.545 11.644H16.562C17.474 11.709 18.138 12.013 18.603 12.512C19.08 13.026 19.327 13.665 19.308 14.455C19.3049 14.5876 19.3547 14.716 19.4463 14.8119C19.5379 14.9079 19.6639 14.9635 19.7965 14.9665C19.9291 14.9696 20.0575 14.9198 20.1534 14.8282C20.2493 14.7366 20.305 14.6106 20.308 14.478C20.332 13.441 19.998 12.546 19.336 11.832V11.83C18.659 11.104 17.73 10.72 16.612 10.645L16.595 10.643L16.545 10.644Z" fill="white"/>
<path d="M16.526 12.319C16.4591 12.3131 16.3917 12.3207 16.3278 12.3415C16.2639 12.3622 16.2048 12.3956 16.1541 12.4397C16.1034 12.4837 16.0621 12.5375 16.0326 12.5979C16.0032 12.6583 15.9862 12.724 15.9827 12.7911C15.9792 12.8581 15.9893 12.9252 16.0123 12.9884C16.0353 13.0515 16.0708 13.1093 16.1167 13.1584C16.1625 13.2075 16.2178 13.2468 16.2792 13.2741C16.3406 13.3013 16.4068 13.3159 16.474 13.317C16.892 13.339 17.159 13.465 17.327 13.634C17.496 13.804 17.622 14.077 17.645 14.504C17.6462 14.5711 17.661 14.6373 17.6884 14.6986C17.7157 14.7598 17.7551 14.815 17.8043 14.8607C17.8534 14.9064 17.9112 14.9418 17.9743 14.9647C18.0374 14.9876 18.1044 14.9976 18.1714 14.994C18.2384 14.9905 18.3041 14.9734 18.3644 14.944C18.4247 14.9145 18.4784 14.8732 18.5224 14.8226C18.5664 14.7719 18.5998 14.7129 18.6205 14.6491C18.6412 14.5852 18.6489 14.5179 18.643 14.451C18.611 13.851 18.423 13.321 18.038 12.931C17.651 12.541 17.124 12.351 16.526 12.319Z" fill="white"/>
<path fill-rule="evenodd" clip-rule="evenodd" d="M11.067 6.384C14.2491 5.6727 17.5489 5.6727 20.731 6.384L21.07 6.459C22.0002 6.66695 22.8545 7.12872 23.5381 7.79302C24.2216 8.45731 24.7076 9.29811 24.942 10.222C25.7497 13.4049 25.7497 16.7391 24.942 19.922C24.7076 20.8459 24.2216 21.6867 23.5381 22.351C22.8545 23.0153 22.0002 23.477 21.07 23.685L20.73 23.76C18.737 24.2057 16.692 24.3736 14.653 24.259L12 26.633C11.9 26.7225 11.7778 26.7836 11.6461 26.8098C11.5144 26.836 11.3781 26.8264 11.2514 26.7819C11.1248 26.7375 11.0123 26.6599 10.9259 26.5572C10.8394 26.4544 10.7822 26.3304 10.76 26.198L10.321 23.576C9.47918 23.3141 8.71861 22.8406 8.11197 22.2009C7.50533 21.5611 7.0729 20.7765 6.856 19.922C6.04825 16.7391 6.04825 13.4049 6.856 10.222C7.09042 9.29811 7.5764 8.45731 8.25994 7.79302C8.94347 7.12872 9.7978 6.66695 10.728 6.459L11.067 6.384ZM20.404 7.847C17.4373 7.1838 14.3607 7.1838 11.394 7.847L11.054 7.923C10.3947 8.07065 9.78927 8.39815 9.30488 8.86913C8.82048 9.3401 8.47611 9.93612 8.31 10.591C7.56371 13.5317 7.56371 16.6123 8.31 19.553C8.47619 20.208 8.82071 20.8041 9.30529 21.2751C9.78987 21.7461 10.3955 22.0735 11.055 22.221L11.145 22.241C11.2906 22.2736 11.4232 22.3488 11.5258 22.4571C11.6284 22.5654 11.6964 22.7019 11.721 22.849L12.015 24.607L13.887 22.932C13.9618 22.8649 14.0492 22.8135 14.1442 22.7809C14.2392 22.7482 14.3398 22.735 14.44 22.742C16.4391 22.8838 18.4481 22.7339 20.404 22.297L20.743 22.221C21.4025 22.0735 22.0081 21.7461 22.4927 21.2751C22.9773 20.8041 23.3218 20.208 23.488 19.553C24.234 16.613 24.234 13.532 23.488 10.591C23.3218 9.936 22.9773 9.33989 22.4927 8.8689C22.0081 8.39792 21.4025 8.07049 20.743 7.923L20.404 7.847Z" fill="white"/>
</g>
<defs>
<clipPath id="clip0_13_17">
<rect width="32" height="32" rx="16" fill="white"/>
</clipPath>
</defs>
</svg>
