<svg id="vk" viewBox="0 0 32 32" fill="none" xmlns="http://www.w3.org/2000/svg">
<g clip-path="url(#clip0_8_2)">
<rect width="32" height="32" rx="16" fill="#0077FF"/>
<path d="M16.9493 23.0507C9.65333 23.0507 5.49333 18.0587 5.32266 9.73866H8.992C9.10933 15.84 11.7973 18.4213 13.9307 18.9547V9.73866H17.376V14.9973C19.4773 14.7733 21.696 12.3733 22.4427 9.728H25.8773C25.5973 11.0973 25.0378 12.3942 24.234 13.5376C23.4301 14.681 22.3991 15.6464 21.2053 16.3733C22.5375 17.0364 23.714 17.9743 24.6572 19.1253C25.6004 20.2763 26.2889 21.6142 26.6773 23.0507H22.8907C22.08 20.5227 20.0533 18.56 17.376 18.2933V23.0507H16.96H16.9493Z" fill="white"/>
</g>
<defs>
<clipPath id="clip0_8_2">
<rect width="32" height="32" rx="16" fill="white"/>
</clipPath>
</defs>
</svg>
