<svg width="48" height="48" viewBox="0 0 48 48" fill="none" xmlns="http://www.w3.org/2000/svg">
<path d="M16.9963 40.0074H31.0036C29.6864 43.1662 27.1588 45.694 24 47.0112C20.8412 45.694 18.3136 43.1662 16.9963 40.0074ZM36 29.617L40 34.1534V38.0074H8V34.1534L12 29.617V18.0075C12 11.041 17.0088 5.11443 24 2.91797C30.9912 5.11443 36 11.041 36 18.0075V29.617ZM24 22.0074C26.2092 22.0074 28 20.2166 28 18.0075C28 15.7984 26.2092 14.0075 24 14.0075C21.7908 14.0075 20 15.7984 20 18.0075C20 20.2166 21.7908 22.0074 24 22.0074Z" fill="#5486E5"/>
</svg>
