<svg width="152" height="35" viewBox="0 0 152 35" fill="none" xmlns="http://www.w3.org/2000/svg">
<g clip-path="url(#clip0)">
<path d="M30.0924 2.00188C30.1022 2.01196 30.7532 1.48797 31.4535 1.17559C32.1538 0.863208 33.7023 0.167911 34.6886 -0.0336242C35.6749 -0.23516 36.2864 -0.305697 37.1149 -0.285543C37.3332 -0.285433 37.5511 -0.265198 37.7659 -0.225083C37.8826 -0.211295 37.9981 -0.187703 38.1111 -0.154545L38.4267 -0.0638545L38.5944 -0.0437011C38.6484 -0.0429001 38.7021 -0.0531794 38.7522 -0.0739313L38.7719 -0.0940849L38.8015 -0.154545L38.8607 -0.26539C38.981 -0.447764 39.1641 -0.577249 39.3735 -0.628153C39.4945 -0.668598 39.6211 -0.68901 39.7483 -0.688614C39.9257 -0.686554 40.1022 -0.713776 40.2711 -0.769228C40.2809 -0.779305 40.1823 -0.366157 40.1823 -0.29562C40.1823 -0.225083 40.1626 0.0469899 40.0146 0.188065C39.8965 0.28632 39.7522 0.346007 39.6004 0.35937C39.6543 0.371528 39.7071 0.388385 39.7582 0.409753L39.9752 0.480291C40.1176 0.533754 40.2561 0.597743 40.3894 0.671749C40.8015 0.907561 41.1296 1.271 41.3264 1.70966C41.6125 2.35457 41.5533 3.0801 41.3264 3.74516C41.2968 3.8157 41.2771 3.89631 41.2475 3.96685C41.1094 4.31954 40.9615 4.66215 40.8037 5.00476C40.6583 5.34393 40.4868 5.67077 40.2908 5.9822C40.2604 6.03975 40.224 6.0938 40.1823 6.14343C40.1626 6.16358 40.1527 6.18374 40.133 6.19382C40.1133 6.20389 40.1823 6.04266 40.202 5.9822C40.2327 5.90999 40.259 5.83596 40.2809 5.76051C40.4979 5.1156 40.6656 4.40015 40.5966 3.71493C40.5663 3.39998 40.4577 3.09817 40.2809 2.83825C40.087 2.56954 39.8084 2.37735 39.4919 2.29411L39.3637 2.2538C39.1014 2.19535 38.8329 2.17164 38.5648 2.18326C37.9335 2.18326 37.2826 2.28403 36.7894 2.70726C36.5019 2.94574 36.2346 3.20867 35.9905 3.49324C35.7761 3.7622 35.6062 4.06514 35.4875 4.39007C35.379 4.64199 35.2902 4.90399 35.1719 5.15591C35.1719 5.16599 35.0634 5.38767 35.0634 5.39775C35.1127 5.22645 35.2015 4.85361 35.2409 4.6823C35.2804 4.511 35.4086 4.06762 35.379 3.75524C35.3702 3.67738 35.3393 3.60385 35.2902 3.54363C35.2136 3.45553 35.1086 3.39834 34.9943 3.3824C34.6294 3.31186 34.2053 3.3824 33.8601 3.47309C33.4332 3.61636 32.9985 3.73412 32.5582 3.82578C32.8836 3.6847 33.7713 3.37232 33.939 3.31186L34.442 3.10025C34.7766 2.96288 35.1027 2.80472 35.4184 2.62664C35.4748 2.59555 35.5277 2.55839 35.5763 2.5158C35.8031 2.33441 36.0891 1.98173 35.9905 1.6492C35.9633 1.54865 35.9044 1.46009 35.8228 1.39728C35.5861 1.18566 35.2409 1.1252 34.9352 1.0849C34.5582 1.03789 34.177 1.04128 33.8009 1.09497C33.6431 1.10505 33.4853 1.13528 33.3373 1.15543C32.6679 1.28988 32.0061 1.46144 31.3549 1.66935L30.8617 1.81042L30.1516 2.01196L30.0825 2.03211L30.0924 2.00188Z" fill="#19192B"/>
<path d="M34.6392 9.00527C34.91 8.79762 35.2008 8.61868 35.5071 8.4712C35.951 8.26966 36.9471 7.82629 37.5784 7.69529C38.0862 7.57729 38.6062 7.52315 39.1269 7.53406C39.2692 7.53197 39.4114 7.54549 39.551 7.57437L39.768 7.62475L39.9751 7.67513L40.0836 7.69529L40.1822 7.67513C40.1879 7.66997 40.1915 7.66275 40.1921 7.65498L40.2118 7.62475L40.2513 7.54414C40.3279 7.42836 40.4439 7.34578 40.5767 7.31237C40.6541 7.29245 40.7336 7.28229 40.8135 7.28214C40.9278 7.282 41.0413 7.26154 41.1488 7.22168C41.1587 7.22168 41.0995 7.48368 41.0995 7.52398C41.0981 7.63749 41.0599 7.74734 40.991 7.83636C40.9176 7.90387 40.8234 7.94307 40.7247 7.94721L40.8233 7.97744L40.9614 8.02782C41.0543 8.05774 41.1437 8.0983 41.2277 8.14874C41.4943 8.29685 41.7058 8.53059 41.8294 8.81381C42.0168 9.22696 41.9773 9.69049 41.8294 10.1137C41.8096 10.1641 41.7998 10.2145 41.78 10.2649C41.6913 10.4866 41.5926 10.7082 41.494 10.9199C41.3993 11.1385 41.2905 11.3506 41.1685 11.5547L41.0995 11.6555L41.06 11.6857C41.0704 11.6399 41.087 11.5958 41.1093 11.5547C41.1302 11.5059 41.1467 11.4553 41.1587 11.4035C41.2967 10.9904 41.4052 10.5369 41.3559 10.0936C41.3399 9.89412 41.2718 9.70272 41.1587 9.53934C41.0364 9.36537 40.8585 9.2406 40.6556 9.18665L40.5767 9.1665C40.405 9.12926 40.2296 9.11236 40.054 9.11611C39.6595 9.11611 39.2354 9.17657 38.9197 9.44865C38.7368 9.60698 38.5654 9.77874 38.4069 9.96256C38.2716 10.1313 38.1649 10.3221 38.0912 10.5269C38.0222 10.6982 37.963 10.8594 37.894 11.0206C37.8249 11.1818 37.8249 11.1718 37.8151 11.1818C37.8052 11.1919 37.9038 10.8292 37.9334 10.7183C37.9965 10.5269 38.0265 10.3257 38.0222 10.1238C38.0156 10.0721 37.9951 10.0232 37.963 9.98271C37.911 9.93187 37.8461 9.89696 37.7756 9.88195C37.531 9.84624 37.2816 9.8669 37.0458 9.94241C36.775 10.0359 36.4981 10.11 36.2173 10.1641L37.0951 9.84164L37.4206 9.71064C37.6375 9.61995 37.8447 9.51918 38.0518 9.40834L38.1504 9.32772C38.2984 9.2068 38.4759 8.98511 38.4167 8.7735C38.3934 8.71184 38.3562 8.65662 38.3082 8.61227C38.1504 8.48128 37.9334 8.44097 37.7362 8.41074C37.4967 8.38383 37.2548 8.38722 37.0162 8.42081L36.7104 8.46112C36.2806 8.54361 35.8558 8.65127 35.4381 8.78358L35.1323 8.87427L34.6687 9.00527H34.6392Z" fill="#19192B"/>
<path d="M45.2914 11.7461H47.3035L48.8914 22.4577L55.5391 11.7461H57.5512L56.2394 28.4231H53.3002L54.2668 18.3262L47.8361 28.6448H47.0371L45.4886 18.3262L41.6716 28.4231H38.7324L45.2914 11.7461Z" fill="#19192B"/>
<path d="M75.3147 20.2408C74.1805 25.2288 70.1169 28.7859 65.4418 28.7859C60.7667 28.7859 58.3207 25.2288 59.4648 20.2408C60.6089 15.2528 64.6626 11.6755 69.3476 11.6755C74.0325 11.6755 76.449 15.2629 75.3147 20.2408ZM72.3361 20.2408C73.0857 16.9255 71.5766 14.5676 68.6868 14.5676C65.7969 14.5676 63.2029 16.9255 62.4434 20.2408C61.684 23.556 63.2029 25.8939 66.1026 25.8939C69.0024 25.8939 71.5766 23.556 72.3361 20.2408Z" fill="#19192B"/>
<path d="M87.0417 27.8286C85.8368 28.4617 84.5008 28.79 83.1458 28.7859C80.542 28.7859 79.1809 27.8084 78.234 26.5085C76.9321 24.6846 76.725 22.6491 77.2773 20.2408C77.9579 17.2681 79.5557 15.1319 81.1239 13.832C82.9683 12.2902 84.9508 11.6755 87.0713 11.6755C88.1168 11.6755 89.3201 11.867 90.4938 12.6832L89.6456 16.4116C88.679 14.6986 87.0122 14.5676 86.4795 14.5676C83.491 14.5676 80.9365 17.2681 80.2461 20.2912C79.4176 23.9289 81.5086 25.8939 84.0039 25.8939C85.3847 25.8939 86.7656 25.2288 87.89 24.1002L87.0417 27.8286Z" fill="#19192B"/>
<path d="M106.265 11.7461L102.468 28.4231H99.5186L102.685 14.5474H98.2857L96.5992 21.9438C96.2046 23.6669 95.7312 25.9443 93.7093 27.4658C92.771 28.1941 91.6229 28.5839 90.4446 28.5743C90.0356 28.5768 89.6279 28.526 89.2314 28.4231L89.8627 25.6218C90.1229 25.7151 90.3958 25.7661 90.6715 25.7729C91.227 25.7666 91.7607 25.5514 92.1706 25.1683C93.1372 24.3219 93.443 22.8708 93.798 21.2989L95.9778 11.7461H106.265Z" fill="#19192B"/>
<path d="M128.27 26.166H127.865C126.839 26.166 125.133 26.0451 123.959 24.9366C123.082 24.1002 122.273 22.5283 122.914 19.7269C123.555 16.9256 125.074 15.3536 126.336 14.5172C128.003 13.4189 129.769 13.2879 130.795 13.2879H131.199L131.574 11.6857H134.464L134.099 13.2879H134.493C135.519 13.2879 137.225 13.4189 138.399 14.5172C139.277 15.3536 140.076 16.9256 139.444 19.7269C138.813 22.5283 137.284 24.1002 136.032 24.9366C134.345 26.0451 132.59 26.166 131.564 26.166H131.159L130.647 28.4232H127.747L128.27 26.166ZM130.568 16.0388H130.124C129.294 16.0249 128.479 16.2672 127.786 16.7341C127.155 17.1775 126.277 18.0844 125.902 19.7269C125.528 21.3694 125.991 22.2562 126.425 22.7197C127.007 23.3646 127.737 23.415 128.447 23.415H128.891L130.568 16.0388ZM131.791 23.415H132.235C132.905 23.415 133.714 23.3646 134.592 22.7197C135.203 22.2864 136.081 21.3694 136.456 19.7269C136.781 18.3061 136.505 17.2682 135.963 16.7341C135.42 16.2001 134.848 16.0388 133.911 16.0388H133.467L131.791 23.415Z" fill="#19192B"/>
<path d="M148.035 14.4366L144.839 28.3829H141.95L145.135 14.4366H141.792L142.423 11.6857H152L151.369 14.4366H148.035Z" fill="#19192B"/>
<path d="M120.418 11.6755L109.628 23.0421L112.232 11.6856H109.332L105.515 28.3828H107.774L118.229 17.3689L115.704 28.4231H118.604L122.421 11.6755H120.418Z" fill="#19192B"/>
<path d="M29.8458 6.08302C28.1787 4.78219 26.2637 3.852 24.2239 3.35222C22.9772 3.05689 21.7056 2.88479 20.4266 2.8383C16.7279 2.69723 13.2857 3.59406 10.0802 5.31719C8.29716 6.25003 6.65325 7.43758 5.19799 8.84405C3.97373 10.0379 2.92405 11.4056 2.08125 12.905C1.01604 14.7994 0.187539 16.9861 0.0297295 19.3642C-0.12808 21.7423 0.296033 24.07 1.37111 26.1862C2.44619 28.3023 4.09332 29.8944 5.92785 31.0532C6.90766 31.6729 7.95329 32.1766 9.04459 32.5547C11.2046 33.3104 13.4337 33.5422 15.5937 33.4414C17.7243 33.3343 19.8295 32.9205 21.8469 32.2121C23.6961 31.5832 25.4492 30.691 27.0546 29.5619C28.651 28.4051 30.0675 27.0089 31.2563 25.4203C32.5823 23.6737 33.5668 21.6826 34.156 19.5557C34.458 18.4219 34.6203 17.254 34.6393 16.0792C34.6592 13.6332 33.9806 11.2345 32.6864 9.17659C31.9214 7.98567 30.9603 6.93903 29.8458 6.08302ZM33.3275 18.1751C32.9825 19.9813 32.2993 21.7023 31.3154 23.2438C31.1083 23.5763 30.8815 23.8987 30.6546 24.2111C29.4542 25.8511 27.9941 27.2747 26.3346 28.4232C24.8946 29.4107 23.425 30.2572 21.8074 30.8719C19.7561 31.6488 17.5933 32.0744 15.4063 32.1315H14.6961C13.6687 32.1323 12.6428 32.0481 11.6287 31.8795C9.56733 31.5269 7.51581 30.8215 5.701 29.3906C5.0325 28.8755 4.4118 28.2987 3.84674 27.6675C2.43632 26.0552 1.50919 24.0297 1.11467 21.833C1.08508 21.6315 1.04563 21.4299 1.0259 21.2284C0.947634 20.6037 0.917952 19.9736 0.937133 19.344C1.04563 16.2505 2.28838 13.5197 3.8862 11.2927C5.15853 9.5192 6.72676 8.0883 8.43308 6.89924C11.8063 4.56143 15.574 3.34214 20.1504 3.33206C23.0995 3.43283 26.4135 4.15836 29.4119 6.71786C30.9702 8.05807 32.3215 9.91219 33.002 12.0182C33.4835 13.5455 33.6579 15.1564 33.5149 16.7543C33.478 17.2311 33.4154 17.7054 33.3275 18.1751Z" fill="#19192B"/>
<path d="M27.7843 8.54174C25.8216 7.87667 23.8785 7.84644 21.9552 8.07821C21.6791 8.10844 21.5015 8.07821 21.4029 7.96736C21.3043 7.85652 21.255 7.66506 21.2352 7.37283C21.1563 6.29462 21.038 5.21641 20.9098 3.9165L17.9903 7.15114C17.793 7.37283 17.6056 7.53406 17.3492 7.56429C17.1695 7.59129 16.9861 7.57047 16.8166 7.50383C15.1271 6.91807 13.328 6.73875 11.5596 6.97984C7.09158 7.57437 2.97867 12.2601 2.2488 17.5201C2.18962 17.9434 2.14031 18.3666 2.11072 18.7999C2.0795 19.2324 2.07292 19.6665 2.09099 20.0998C2.11072 20.523 2.16003 20.9462 2.21921 21.3695C2.27055 21.7793 2.35635 22.1839 2.47565 22.5787C2.47882 22.603 2.48547 22.6268 2.49538 22.6492C2.50524 22.6694 2.52497 22.6996 2.54469 22.6996H2.57428L2.66305 22.619L3.8269 21.5307C3.85451 21.5057 3.87602 21.4745 3.88972 21.4395C3.90342 21.4045 3.90893 21.3667 3.9058 21.3292C3.88119 21.1185 3.8713 20.9064 3.87621 20.6943C3.88607 20.4222 3.9058 20.1602 3.93539 19.8983C3.98317 19.5116 4.05232 19.1281 4.14251 18.7495C4.23128 18.3767 4.33978 18.0139 4.45813 17.6612C4.57649 17.3085 4.68498 17.0768 4.8132 16.7946C5.07111 16.2129 5.40633 15.6704 5.80938 15.1823C6.17629 14.737 6.60888 14.3529 7.09158 14.0437C8.21597 13.3383 9.5179 13.177 10.9382 13.4693C11.1749 13.5197 11.6385 13.6103 11.7272 13.963C11.816 14.3157 11.599 14.3258 11.4806 14.4366C10.9382 14.9606 10.4549 15.5552 9.94201 16.1195L8.35405 17.9031C7.82144 18.4875 7.2987 19.082 6.76609 19.6766L5.89814 20.6137C5.50362 21.0369 5.1091 21.4803 4.70471 21.8934L2.96881 23.7577L3.03785 23.9189C3.21454 24.2808 3.41902 24.6279 3.64936 24.9568C3.86983 25.277 4.12093 25.5741 4.39895 25.8435C4.47006 25.9128 4.54586 25.9767 4.62581 26.035L8.41323 21.6617L9.53762 20.3215C10.2774 19.3944 11.0664 18.5177 11.816 17.6108L12.8122 16.4318C12.97 16.2303 13.1376 16.0389 13.3053 15.8373C13.473 15.6358 13.5815 15.4242 13.7787 15.3637C13.8119 15.3568 13.8462 15.3603 13.8774 15.3738C13.9267 15.3939 13.9563 15.4544 13.9859 15.5149C14.0921 15.8132 14.1746 16.1199 14.2324 16.4318C14.5086 17.762 14.5579 19.1022 14.5777 20.4323C14.5777 20.5432 14.5678 20.6641 14.5777 20.785C14.5974 20.7145 14.6566 20.6842 14.696 20.6339C15.4259 19.737 16.1656 18.8503 16.9448 18.0139C17.5464 17.369 18.1481 16.7543 18.8681 16.2807C18.9569 16.2202 19.1147 16.1295 19.2133 16.2706C19.2399 16.3169 19.2567 16.3684 19.2626 16.4218C19.3089 16.8097 19.3352 17.1999 19.3415 17.5907C19.3711 17.9635 19.3908 18.3364 19.4106 18.7193C19.4697 19.606 19.5191 20.4827 19.5782 21.3695C19.667 22.7197 19.7361 24.06 19.8248 25.4002C19.9136 26.7404 20.1108 29.6022 20.1404 29.7936L20.6435 29.6425C21.2451 29.4611 22.0637 29.1185 22.9021 28.7759C23.1684 28.665 23.5235 28.4635 23.5235 28.4635C23.5235 28.4635 23.5037 28.01 23.4742 27.7279C23.0402 23.8786 22.6654 20.0292 22.2511 16.1799C22.1821 15.6257 22.3005 15.404 22.7542 15.3839C23.4939 15.3436 24.2435 15.3436 24.9931 15.5552C27.2221 16.1799 28.1493 17.9937 27.5673 20.4827C27.1136 22.4477 26.0879 23.9693 25.0227 25.4405C24.9112 25.5904 24.7892 25.7318 24.6577 25.8637C24.6479 25.8838 24.638 25.8838 24.638 25.8939C24.638 25.904 24.855 27.5062 24.8846 27.607C24.9142 27.7077 24.9142 27.6473 24.9339 27.6372C25.0656 27.597 25.1916 27.5394 25.3087 27.4659C27.4884 26.0451 29.3328 24.0096 30.6545 21.5307C31.8874 19.2231 32.8934 16.1799 32.1635 13.2073C31.5619 10.7889 29.7668 9.2068 27.7843 8.54174Z" fill="#19192B"/>
</g>
<defs>
<clipPath id="clip0">
<rect width="152" height="35" fill="white"/>
</clipPath>
</defs>
</svg>
