<svg width="60" height="20" viewBox="0 0 60 20" fill="none" xmlns="http://www.w3.org/2000/svg">
<g opacity="0.6">
<path d="M25.6765 10.525C25.6765 13.4024 23.4535 15.5227 20.7255 15.5227C17.9974 15.5227 15.7744 13.4024 15.7744 10.525C15.7744 7.62727 17.9974 5.52722 20.7255 5.52722C23.4535 5.52722 25.6765 7.62727 25.6765 10.525ZM23.5092 10.525C23.5092 8.72687 22.2208 7.49658 20.7255 7.49658C19.2301 7.49658 17.9417 8.72687 17.9417 10.525C17.9417 12.3051 19.2301 13.5534 20.7255 13.5534C22.2208 13.5534 23.5092 12.3028 23.5092 10.525Z" fill="#97ACB3"/>
<path d="M36.3574 10.525C36.3574 13.4024 34.1345 15.5227 31.4064 15.5227C28.6783 15.5227 26.4553 13.4024 26.4553 10.525C26.4553 7.62952 28.6783 5.52722 31.4064 5.52722C34.1345 5.52722 36.3574 7.62727 36.3574 10.525ZM34.1901 10.525C34.1901 8.72687 32.9017 7.49658 31.4064 7.49658C29.911 7.49658 28.6227 8.72687 28.6227 10.525C28.6227 12.3051 29.911 13.5534 31.4064 13.5534C32.9017 13.5534 34.1901 12.3028 34.1901 10.525Z" fill="#97ACB3"/>
<path d="M46.5933 5.82916V14.8017C46.5933 18.4925 44.4438 20 41.9026 20C39.5106 20 38.0709 18.3799 37.5279 17.055L39.4149 16.2596C39.7509 17.073 40.5742 18.0329 41.9004 18.0329C43.527 18.0329 44.535 17.0167 44.535 15.1036V14.3848H44.4594C43.9743 14.991 43.0397 15.5205 41.8604 15.5205C39.3926 15.5205 37.1318 13.3438 37.1318 10.543C37.1318 7.72191 39.3926 5.52722 41.8604 5.52722C43.0375 5.52722 43.9721 6.05674 44.4594 6.64484H44.535V5.83141H46.5933V5.82916ZM44.6886 10.543C44.6886 8.7832 43.5292 7.49658 42.0539 7.49658C40.5586 7.49658 39.3058 8.7832 39.3058 10.543C39.3058 12.2848 40.5586 13.5534 42.0539 13.5534C43.5292 13.5534 44.6886 12.2848 44.6886 10.543Z" fill="#97ACB3"/>
<path d="M49.9867 0.570068V15.2163H47.8728V0.570068H49.9867Z" fill="#97ACB3"/>
<path d="M58.2243 12.1699L59.9065 13.3055C59.3636 14.119 58.0552 15.5205 55.7944 15.5205C52.9906 15.5205 50.8967 13.3258 50.8967 10.5228C50.8967 7.55069 53.0084 5.52499 55.5518 5.52499C58.113 5.52499 59.3658 7.58899 59.7752 8.70436L60 9.27218L53.4023 12.0392C53.9074 13.0419 54.6929 13.5534 55.7944 13.5534C56.8981 13.5534 57.6635 13.0036 58.2243 12.1699ZM53.0463 10.3718L57.4566 8.51734C57.214 7.89318 56.4842 7.4583 55.6253 7.4583C54.5238 7.4583 52.9906 8.44298 53.0463 10.3718Z" fill="#97ACB3"/>
<path d="M7.77258 9.22489V7.10457H14.8287C14.8976 7.4741 14.9332 7.91124 14.9332 8.38442C14.9332 9.97523 14.5038 11.9423 13.1197 13.3439C11.7735 14.7634 10.0534 15.5205 7.77481 15.5205C3.5514 15.5205 0 12.037 0 7.76027C0 3.48356 3.5514 0 7.77481 0C10.1113 0 11.7757 0.928348 13.0263 2.13835L11.5487 3.63453C10.652 2.78279 9.43703 2.12033 7.77258 2.12033C4.68847 2.12033 2.27637 4.63723 2.27637 7.76027C2.27637 10.8833 4.68847 13.4002 7.77258 13.4002C9.77303 13.4002 10.9123 12.5868 11.6422 11.8477C12.2341 11.2483 12.6235 10.3921 12.777 9.22264L7.77258 9.22489Z" fill="#97ACB3"/>
</g>
</svg>
