<svg width="60" height="20" viewBox="0 0 60 20" fill="none" xmlns="http://www.w3.org/2000/svg">
<g clip-path="url(#clip0_581_7025)">
<path d="M26.4045 7.57827C25.0315 7.57827 23.6 8.42616 23.6 8.42616V7.88104C23.6 7.76164 23.5435 7.71372 23.4024 7.71372H21.6499C21.5087 7.71372 21.4238 7.7856 21.4238 7.88104V19.5028C21.4238 19.6226 21.4805 19.6945 21.6218 19.6945H23.4025C23.5152 19.6945 23.6001 19.6226 23.6001 19.5028V9.55488C23.6001 9.55488 24.4266 9.1118 25.4303 9.1118C26.3859 9.1118 27.1405 9.51305 27.1405 10.3363C27.1405 10.9096 27.1405 19.5028 27.1405 19.5028C27.1405 19.6226 27.2252 19.6945 27.3666 19.6945H29.1184C29.2598 19.6945 29.3162 19.5987 29.3162 19.5028V9.81531C29.3163 8.35631 28.256 7.57827 26.4045 7.57827Z" fill="#BBC8CD"/>
<path d="M40.0361 1.74877H38.2837C38.1423 1.74877 38.0575 1.82055 38.0575 1.91619V7.7792C37.3849 7.56071 36.7723 7.44538 36.2773 7.44538C33.4312 7.44538 31.4773 9.74738 31.4773 14.1739C31.4773 17.9662 33.3781 20 35.8585 20C36.904 20 37.7669 19.4931 38.3989 19.0176L38.7814 19.5663C38.8459 19.6612 38.8988 19.6937 39.0284 19.6937L40.036 19.6947C40.1489 19.6947 40.2339 19.6228 40.2339 19.503V1.91637C40.234 1.79667 40.1774 1.74877 40.0361 1.74877ZM33.795 13.7825C33.795 11.3435 34.6387 8.92813 36.3616 8.92813C36.9452 8.92813 37.5058 9.09058 38.0577 9.46148V18.0547C37.6262 18.2532 37.0831 18.4366 36.4963 18.4366C34.6228 18.4365 33.795 16.5564 33.795 13.7825Z" fill="#BBC8CD"/>
<path d="M46.749 7.46944C43.8307 7.46944 42.3901 10.6995 42.3901 14.2149C42.3901 17.8941 44.4445 19.9565 47.086 19.9565C48.2472 19.9565 49.4028 19.5697 50.1606 19.2135C50.2767 19.1589 50.2977 19.0818 50.2698 18.9868L50.0481 18.2095C50.0205 18.1145 49.9641 18.0671 49.8236 18.0671C49.7618 18.0671 48.8046 18.304 47.873 18.304C45.7114 18.304 44.72 16.6782 44.72 14.5188C44.72 14.2341 44.72 13.994 44.72 13.994C44.72 13.994 45.7945 14.1198 46.44 14.1198H50.5181V13.1226C50.5181 9.44088 48.9944 7.46944 46.749 7.46944ZM46.6086 12.6235C45.9631 12.6235 44.7883 12.7584 44.7883 12.7584C44.7883 12.7584 44.804 12.3622 44.8603 11.9821C45.1129 9.96324 45.6821 8.94214 46.6645 8.94214C47.5188 8.94214 48.1038 9.987 48.2446 11.816C48.2723 12.1961 48.2723 12.6236 48.2723 12.6236L46.6086 12.6235Z" fill="#BBC8CD"/>
<path d="M18.0955 8.97885C17.4475 7.89867 16.2933 7.42645 14.9711 7.42645C14.1217 7.42645 12.7961 7.70129 11.9108 8.03787C11.7376 8.10376 11.6281 8.16174 11.6281 8.27708C11.6281 8.34561 11.6683 8.4244 11.7129 8.49243L12.3093 9.57292C12.371 9.69496 12.4693 9.72278 12.5506 9.72278C12.6388 9.72278 12.7106 9.68742 12.7898 9.6445C13.6533 9.17756 14.2859 8.92089 14.7867 8.92089C15.4492 8.92089 15.8991 9.2928 16.1765 9.85193C16.4349 10.373 16.5351 11.0929 16.5351 11.9248C16.5351 12.0309 16.5356 12.1693 16.5356 12.1693C15.9914 11.8811 15.0486 11.7223 14.5781 11.7223C12.0461 11.7223 10.6807 13.7577 10.6807 15.9344C10.6807 18.2795 12.2765 19.9998 14.1942 19.9998C15.2624 19.9998 16.2292 19.4694 16.8767 18.8006C16.8767 18.8006 17.2215 19.496 17.2665 19.5794C17.3118 19.6627 17.3597 19.6934 17.4893 19.6934L18.5141 19.6944C18.6269 19.6944 18.7119 19.6225 18.7119 19.5027V12.7612C18.7115 11.1047 18.6126 9.84076 18.0955 8.97885ZM16.5354 17.8112C16.0335 18.2213 15.432 18.4364 14.891 18.4364C14.35 18.4364 13.9319 18.2249 13.5967 17.8334C13.1885 17.3569 12.9982 16.6231 12.9982 15.8102C12.9982 14.5244 13.5592 13.2051 14.7485 13.2051C15.337 13.2051 15.9836 13.3671 16.5356 13.7384L16.5354 17.8112Z" fill="#BBC8CD"/>
<path d="M59.7726 7.71222C59.5328 7.71222 58.385 7.71222 58.2107 7.71222C58.0362 7.71222 57.9473 7.78959 57.9023 7.8898C57.8033 8.10952 57.1432 9.5806 56.8724 10.19C56.6795 10.6254 56.1598 11.872 56.1598 11.872L56.0993 11.8716C56.0976 11.8673 55.7167 10.9648 55.5107 10.5129C55.3439 10.1465 54.4738 8.20718 54.3636 7.96797C54.3049 7.83953 54.2392 7.71222 54.0155 7.71222C53.7135 7.71222 52.4935 7.71222 52.3054 7.71222C52.1175 7.71222 52.011 7.88665 52.0718 7.99488C52.1326 8.10342 54.8573 13.3543 54.8573 13.3543C54.8573 13.3543 51.9312 19.2341 51.8457 19.3661C51.7601 19.4981 51.8678 19.6936 52.076 19.6936C52.2837 19.6936 53.32 19.6936 53.5746 19.6936C53.8296 19.6936 53.9302 19.5805 54.0067 19.3983C54.2221 18.8878 54.5429 18.1778 54.9971 17.0806C55.2979 16.3534 55.7737 15.0772 55.7737 15.0772H55.8261C55.8261 15.0772 56.3473 16.3779 56.5411 16.8032C57.0307 17.8786 57.6571 19.2834 57.7236 19.4318C57.7927 19.5869 57.8896 19.6937 58.0649 19.6937C58.2405 19.6937 59.5956 19.6937 59.7643 19.6937C59.9324 19.6937 60.0103 19.5312 59.9312 19.3899C59.742 19.0528 58.1281 15.7347 57.0076 13.5534C57.0076 13.5534 59.916 8.12281 59.9727 7.98848C60.0295 7.85415 60.0124 7.71222 59.7726 7.71222Z" fill="#BBC8CD"/>
<path d="M12.4505 1.14441e-05H10.4804C10.306 1.14441e-05 10.197 0.0724964 10.1718 0.17758C10.1468 0.283073 7.21742 7.84044 7.00453 8.46994C6.85357 8.91626 6.36134 10.4896 6.24325 10.8674L5.22446 8.5139C4.97691 7.86613 2.60416 2.25755 2.53455 2.03346C2.49618 1.91031 2.42931 1.75721 2.17419 1.75721H0.250855C0.0628189 1.75721 -0.0436303 1.93174 0.0170966 2.03997C0.0654428 2.12667 3.53967 9.9468 4.94319 12.9343V19.5027C4.94319 19.6225 4.99984 19.6944 5.14106 19.6944H6.96265C7.07558 19.6944 7.16029 19.6225 7.16029 19.5027V13.2761V12.986C8.33029 10.2213 12.6039 0.38633 12.6504 0.27627C12.7072 0.141745 12.6905 1.14441e-05 12.4505 1.14441e-05Z" fill="#BBC8CD"/>
</g>
<defs>
<clipPath id="clip0_581_7025">
<rect width="60" height="20" fill="white"/>
</clipPath>
</defs>
</svg>
