<svg id="google" viewBox="0 0 190 177" fill="none" xmlns="http://www.w3.org/2000/svg">
<g clip-path="url(#clip0_1_2)">
<path fill-rule="evenodd" clip-rule="evenodd" d="M182.299 176.81C193.686 180.072 179.037 139.546 179.037 139.546C185.56 120.076 192.02 53.6057 187.967 33.3455C183.914 13.079 168.714 13.7807 140.784 8.2368C112.353 2.54752 40.8501 -0.708017 25.3334 0.126412C9.91172 0.929233 -1.42495 11.4418 0.158384 32.5553C1.78605 53.6057 26.5241 132.055 38.7917 151.525C51.0151 170.995 69.084 167.594 79.8634 166.291C94.6454 164.471 150.29 151.525 150.29 151.525C145.312 145.14 170.918 173.548 182.299 176.81ZM107.667 54.3011L117.572 33.2886H147.212L114.811 94.872V131.157H80.8007V94.872L62.6874 60.4455L48.3551 33.2886H77.995L97.7804 75.1681L107.667 54.3011Z" fill="#97ACB3"/>
</g>
<defs>
<clipPath id="clip0_1_2">
<rect width="190" height="177" fill="white"/>
</clipPath>
</defs>
</svg>
