<svg width="50" height="50" viewBox="0 0 50 50" fill="none" xmlns="http://www.w3.org/2000/svg">
<path d="M43.7487 41.6668H47.9154V45.8334H2.08203V41.6668H6.2487V6.25008C6.2487 5.0995 7.18145 4.16675 8.33203 4.16675H41.6654C42.816 4.16675 43.7487 5.0995 43.7487 6.25008V41.6668ZM16.6654 22.9167V27.0834H22.9154V22.9167H16.6654ZM16.6654 14.5834V18.7501H22.9154V14.5834H16.6654ZM16.6654 31.2501V35.4167H22.9154V31.2501H16.6654ZM27.082 31.2501V35.4167H33.332V31.2501H27.082ZM27.082 22.9167V27.0834H33.332V22.9167H27.082ZM27.082 14.5834V18.7501H33.332V14.5834H27.082Z" fill="#5486E5"/>
</svg>
